# xmcd
#
# Track frame offsets: 
#        150
#        26339
#        52459
#        75221
#        97215
#        122273
#        154114
#        173205
#        201923
#        222456
#
# Disc length: 3277 seconds
#
# Revision: 0
# Processed by: cddbd v1.5.2PL0 Copyright (c) Steve Scherf et al.
# Submitted via: ExactAudioCopy v1.0b3
#
DISCID=850ccb0a
DTITLE=Tuan Vu, Thien Trang - Dam Me
DYEAR=1988
DGENRE=
TTITLE0=Loi gioi thieu, Dam me
TTITLE1=Tuan Vu - Con nho hay khong (Hoa hoc tro)
TTITLE2=Thien Trang - Doi bong
TTITLE3=Tuan Vu - Nhung dem cho sang (Ngu di em)
TTITLE4=Thien Trang - Thuong ve mien dat lanh
TTITLE5=Thien Trang - Neu hai dua minh
TTITLE6=Tuan Vu - Sai Gon thu bay
TTITLE7=Thien Trang - Neu ai co hoi
TTITLE8=Tuan Vu - Nha anh nha em
TTITLE9=Ngoai o buon
EXTD=
EXTT0=
EXTT1=
EXTT2=
EXTT3=
EXTT4=
EXTT5=
EXTT6=
EXTT7=
EXTT8=
EXTT9=
PLAYORDER=
